<?xml version="1.0" standalone="no"?>
<svg width="567.429" height="384.969" viewBox="0 0 567.429 384.969" xmlns="http://www.w3.org/2000/svg">
<title>
Result/amp_noninv_A1.svg
</title>
<desc>
Creator: ROOT Version 6.06/02
CreationDate: Sun May  8 11:06:47 2016</desc>
<defs>
</defs>
<rect x="0.5" y="0" width="566.929" height="384.469" fill="white"/>
<rect x="57.1929" y="38.4469" width="453.543" height="307.575" fill="white"/>
<rect x="57.1929" y="38.4469" width="453.543" height="307.575" fill="none" stroke="black"/>
<rect x="57.1929" y="38.4469" width="453.543" height="307.575" fill="white"/>
<rect x="57.1929" y="38.4469" width="453.543" height="307.575" fill="none" stroke="black"/>
<path d="M57.1929,346.022h 453.543" fill="none" stroke="black"/>
<path d="M60.7311,38.4469v 307.575" fill="none" stroke="black" stroke-dasharray=" 1, 2"/>
<path d="M138.058,38.4469v 307.575" fill="none" stroke="black" stroke-dasharray=" 1, 2"/>
<path d="M215.384,38.4469v 307.575" fill="none" stroke="black" stroke-dasharray=" 1, 2"/>
<path d="M292.711,38.4469v 307.575" fill="none" stroke="black" stroke-dasharray=" 1, 2"/>
<path d="M370.037,38.4469v 307.575" fill="none" stroke="black" stroke-dasharray=" 1, 2"/>
<path d="M447.364,38.4469v 307.575" fill="none" stroke="black" stroke-dasharray=" 1, 2"/>
<path d="M57.1929,346.022v -307.575" fill="none" stroke="black"/>
<path d="M510.736,333.801h -453.543" fill="none" stroke="black" stroke-dasharray=" 1, 2"/>
<path d="M510.736,311.424h -453.543" fill="none" stroke="black" stroke-dasharray=" 1, 2"/>
<path d="M510.736,294.067h -453.543" fill="none" stroke="black" stroke-dasharray=" 1, 2"/>
<path d="M510.736,279.885h -453.543" fill="none" stroke="black" stroke-dasharray=" 1, 2"/>
<path d="M510.736,267.895h -453.543" fill="none" stroke="black" stroke-dasharray=" 1, 2"/>
<path d="M510.736,257.508h -453.543" fill="none" stroke="black" stroke-dasharray=" 1, 2"/>
<path d="M510.736,248.347h -453.543" fill="none" stroke="black" stroke-dasharray=" 1, 2"/>
<path d="M510.736,240.151h -453.543" fill="none" stroke="black" stroke-dasharray=" 1, 2"/>
<path d="M510.736,186.235h -453.543" fill="none" stroke="black" stroke-dasharray=" 1, 2"/>
<path d="M510.736,154.697h -453.543" fill="none" stroke="black" stroke-dasharray=" 1, 2"/>
<path d="M510.736,132.32h -453.543" fill="none" stroke="black" stroke-dasharray=" 1, 2"/>
<path d="M510.736,114.963h -453.543" fill="none" stroke="black" stroke-dasharray=" 1, 2"/>
<path d="M510.736,100.781h -453.543" fill="none" stroke="black" stroke-dasharray=" 1, 2"/>
<path d="M510.736,88.7905h -453.543" fill="none" stroke="black" stroke-dasharray=" 1, 2"/>
<path d="M510.736,78.4039h -453.543" fill="none" stroke="black" stroke-dasharray=" 1, 2"/>
<path d="M510.736,69.2422h -453.543" fill="none" stroke="black" stroke-dasharray=" 1, 2"/>
<path d="M510.736,61.0469h -453.543" fill="none" stroke="black" stroke-dasharray=" 1, 2"/>
<path d="M57.1929,346.022h 453.543" fill="none" stroke="black"/>
<text x="481.901" y="371.436" fill="black" font-size="12.8453" font-family="Helvetica">
f [Hz]
</text>
<path d="M60.7311,336.795v 9.22726" fill="none" stroke="black"/>
<text x="60.7311" y="363.419" text-anchor="middle" fill="black" font-size="12.8453" font-family="Helvetica">
10
</text>
<path d="M84.0087,341.409v 4.61363" fill="none" stroke="black"/>
<path d="M97.6252,341.409v 4.61363" fill="none" stroke="black"/>
<path d="M107.286,341.409v 4.61363" fill="none" stroke="black"/>
<path d="M114.78,341.409v 4.61363" fill="none" stroke="black"/>
<path d="M120.903,341.409v 4.61363" fill="none" stroke="black"/>
<path d="M126.08,341.409v 4.61363" fill="none" stroke="black"/>
<path d="M130.564,341.409v 4.61363" fill="none" stroke="black"/>
<path d="M134.519,341.409v 4.61363" fill="none" stroke="black"/>
<path d="M138.058,336.795v 9.22726" fill="none" stroke="black"/>
<text x="141.418" y="357.589" fill="black" font-size="8.73023" font-family="Helvetica">
2
</text>
<text x="127.57" y="363.291" fill="black" font-size="12.8453" font-family="Helvetica">
10
</text>
<path d="M161.335,341.409v 4.61363" fill="none" stroke="black"/>
<path d="M174.952,341.409v 4.61363" fill="none" stroke="black"/>
<path d="M184.613,341.409v 4.61363" fill="none" stroke="black"/>
<path d="M192.107,341.409v 4.61363" fill="none" stroke="black"/>
<path d="M198.229,341.409v 4.61363" fill="none" stroke="black"/>
<path d="M203.406,341.409v 4.61363" fill="none" stroke="black"/>
<path d="M207.89,341.409v 4.61363" fill="none" stroke="black"/>
<path d="M211.846,341.409v 4.61363" fill="none" stroke="black"/>
<path d="M215.384,336.795v 9.22726" fill="none" stroke="black"/>
<text x="218.8" y="356.774" fill="black" font-size="8.73023" font-family="Helvetica">
3
</text>
<text x="204.953" y="363.291" fill="black" font-size="12.8453" font-family="Helvetica">
10
</text>
<path d="M238.662,341.409v 4.61363" fill="none" stroke="black"/>
<path d="M252.278,341.409v 4.61363" fill="none" stroke="black"/>
<path d="M261.939,341.409v 4.61363" fill="none" stroke="black"/>
<path d="M269.433,341.409v 4.61363" fill="none" stroke="black"/>
<path d="M275.556,341.409v 4.61363" fill="none" stroke="black"/>
<path d="M280.733,341.409v 4.61363" fill="none" stroke="black"/>
<path d="M285.217,341.409v 4.61363" fill="none" stroke="black"/>
<path d="M289.172,341.409v 4.61363" fill="none" stroke="black"/>
<path d="M292.711,336.795v 9.22726" fill="none" stroke="black"/>
<text x="296.183" y="357.589" fill="black" font-size="8.73023" font-family="Helvetica">
4
</text>
<text x="282.335" y="363.291" fill="black" font-size="12.8453" font-family="Helvetica">
10
</text>
<path d="M315.988,341.409v 4.61363" fill="none" stroke="black"/>
<path d="M329.605,341.409v 4.61363" fill="none" stroke="black"/>
<path d="M339.266,341.409v 4.61363" fill="none" stroke="black"/>
<path d="M346.76,341.409v 4.61363" fill="none" stroke="black"/>
<path d="M352.882,341.409v 4.61363" fill="none" stroke="black"/>
<path d="M358.059,341.409v 4.61363" fill="none" stroke="black"/>
<path d="M362.543,341.409v 4.61363" fill="none" stroke="black"/>
<path d="M366.499,341.409v 4.61363" fill="none" stroke="black"/>
<path d="M370.037,336.795v 9.22726" fill="none" stroke="black"/>
<text x="373.565" y="356.774" fill="black" font-size="8.73023" font-family="Helvetica">
5
</text>
<text x="359.718" y="363.291" fill="black" font-size="12.8453" font-family="Helvetica">
10
</text>
<path d="M393.315,341.409v 4.61363" fill="none" stroke="black"/>
<path d="M406.931,341.409v 4.61363" fill="none" stroke="black"/>
<path d="M416.592,341.409v 4.61363" fill="none" stroke="black"/>
<path d="M424.086,341.409v 4.61363" fill="none" stroke="black"/>
<path d="M430.209,341.409v 4.61363" fill="none" stroke="black"/>
<path d="M435.386,341.409v 4.61363" fill="none" stroke="black"/>
<path d="M439.87,341.409v 4.61363" fill="none" stroke="black"/>
<path d="M443.825,341.409v 4.61363" fill="none" stroke="black"/>
<path d="M447.364,336.795v 9.22726" fill="none" stroke="black"/>
<text x="450.948" y="356.774" fill="black" font-size="8.73023" font-family="Helvetica">
6
</text>
<text x="437.101" y="363.291" fill="black" font-size="12.8453" font-family="Helvetica">
10
</text>
<path d="M470.641,341.409v 4.61363" fill="none" stroke="black"/>
<path d="M484.258,341.409v 4.61363" fill="none" stroke="black"/>
<path d="M493.919,341.409v 4.61363" fill="none" stroke="black"/>
<path d="M501.413,341.409v 4.61363" fill="none" stroke="black"/>
<path d="M507.535,341.409v 4.61363" fill="none" stroke="black"/>
<path d="M57.1929,346.022v -307.575" fill="none" stroke="black"/>
<g transform="rotate(-90,30.6385,46.4295)">
<text x="30.6385" y="46.4295" fill="black" font-size="12.8453" font-family="Helvetica">
A
</text>
</g>
<path d="M63.9961,333.801h -6.80315" fill="none" stroke="black"/>
<path d="M63.9961,311.424h -6.80315" fill="none" stroke="black"/>
<path d="M63.9961,294.067h -6.80315" fill="none" stroke="black"/>
<path d="M63.9961,279.885h -6.80315" fill="none" stroke="black"/>
<path d="M63.9961,267.895h -6.80315" fill="none" stroke="black"/>
<path d="M63.9961,257.508h -6.80315" fill="none" stroke="black"/>
<path d="M63.9961,248.347h -6.80315" fill="none" stroke="black"/>
<path d="M70.7992,240.151h -13.6063" fill="none" stroke="black"/>
<text x="49.3732" y="240.293" fill="black" font-size="8.73023" font-family="Helvetica">
1
</text>
<text x="44.4859" y="240.293" fill="black" font-size="8.73023" font-family="Times">
&#8722;
</text>
<text x="30.6385" y="245.181" fill="black" font-size="12.8453" font-family="Helvetica">
10
</text>
<path d="M63.9961,186.235h -6.80315" fill="none" stroke="black"/>
<path d="M63.9961,154.697h -6.80315" fill="none" stroke="black"/>
<path d="M63.9961,132.32h -6.80315" fill="none" stroke="black"/>
<path d="M63.9961,114.963h -6.80315" fill="none" stroke="black"/>
<path d="M63.9961,100.781h -6.80315" fill="none" stroke="black"/>
<path d="M63.9961,88.7905h -6.80315" fill="none" stroke="black"/>
<path d="M63.9961,78.4039h -6.80315" fill="none" stroke="black"/>
<path d="M63.9961,69.2422h -6.80315" fill="none" stroke="black"/>
<path d="M70.7992,61.0469h -13.6063" fill="none" stroke="black"/>
<text x="52.7709" y="67.4696" text-anchor="end" fill="black" font-size="12.8453" font-family="Helvetica">
1
</text>
<g stroke="#0000ff" stroke-width="1" fill="none">
<line x1="59.7312" y1="60.2729" x2="60.7312" y2="60.2729"/>
<line x1="96.6253" y1="60.2729" x2="97.6253" y2="60.2729"/>
<line x1="137.058" y1="60.2729" x2="138.058" y2="60.2729"/>
<line x1="173.952" y1="60.2729" x2="174.952" y2="60.2729"/>
<line x1="214.384" y1="60.2729" x2="215.384" y2="60.2729"/>
<line x1="251.278" y1="61.0469" x2="252.278" y2="61.0469"/>
<line x1="291.711" y1="61.0469" x2="292.711" y2="61.0469"/>
<line x1="328.605" y1="60.2729" x2="329.605" y2="60.2729"/>
<line x1="369.037" y1="59.5066" x2="370.037" y2="59.5066"/>
<line x1="405.931" y1="55.0606" x2="406.931" y2="55.0606"/>
<line x1="438.87" y1="48.1725" x2="439.87" y2="48.1725"/>
<line x1="442.825" y1="57.2518" x2="443.825" y2="57.2518"/>
<line x1="446.364" y1="69.2423" x2="447.364" y2="69.2423"/>
<line x1="450.468" y1="87.6872" x2="451.468" y2="87.6872"/>
<line x1="459.98" y1="134.289" x2="460.98" y2="134.289"/>
<line x1="469.641" y1="182.44" x2="470.641" y2="182.44"/>
<line x1="483.258" y1="248.347" x2="484.258" y2="248.347"/>
<line x1="506.535" y1="333.801" x2="507.535" y2="333.801"/>
</g>
<path d="M60.7312,60.2729v -2.52105" fill="none" stroke="#ff0000"/>
<path d="M59.1021,57.7519h 3.25821" fill="none" stroke="#ff0000"/>
<path d="M60.7312,60.2729v 2.6055" fill="none" stroke="#ff0000"/>
<path d="M59.1021,62.8784h 3.25821" fill="none" stroke="#ff0000"/>
<path d="M97.6253,60.2729v -2.52105" fill="none" stroke="#ff0000"/>
<path d="M95.9962,57.7519h 3.25821" fill="none" stroke="#ff0000"/>
<path d="M97.6253,60.2729v 2.6055" fill="none" stroke="#ff0000"/>
<path d="M95.9962,62.8784h 3.25821" fill="none" stroke="#ff0000"/>
<path d="M138.058,60.2729v -2.52105" fill="none" stroke="#ff0000"/>
<path d="M136.429,57.7519h 3.25821" fill="none" stroke="#ff0000"/>
<path d="M138.058,60.2729v 2.6055" fill="none" stroke="#ff0000"/>
<path d="M136.429,62.8784h 3.25821" fill="none" stroke="#ff0000"/>
<path d="M174.952,60.2729v -2.52105" fill="none" stroke="#ff0000"/>
<path d="M173.323,57.7519h 3.25821" fill="none" stroke="#ff0000"/>
<path d="M174.952,60.2729v 2.6055" fill="none" stroke="#ff0000"/>
<path d="M173.323,62.8784h 3.25821" fill="none" stroke="#ff0000"/>
<path d="M215.384,60.2729v -2.52105" fill="none" stroke="#ff0000"/>
<path d="M213.755,57.7519h 3.25821" fill="none" stroke="#ff0000"/>
<path d="M215.384,60.2729v 2.6055" fill="none" stroke="#ff0000"/>
<path d="M213.755,62.8784h 3.25821" fill="none" stroke="#ff0000"/>
<path d="M252.278,61.0469v -2.52429" fill="none" stroke="#ff0000"/>
<path d="M250.649,58.5226h 3.25821" fill="none" stroke="#ff0000"/>
<path d="M252.278,61.0469v 2.60896" fill="none" stroke="#ff0000"/>
<path d="M250.649,63.6559h 3.25821" fill="none" stroke="#ff0000"/>
<path d="M292.711,61.0469v -2.52429" fill="none" stroke="#ff0000"/>
<path d="M291.082,58.5226h 3.25821" fill="none" stroke="#ff0000"/>
<path d="M292.711,61.0469v 2.60896" fill="none" stroke="#ff0000"/>
<path d="M291.082,63.6559h 3.25821" fill="none" stroke="#ff0000"/>
<path d="M329.605,60.2729v -2.52105" fill="none" stroke="#ff0000"/>
<path d="M327.976,57.7519h 3.25821" fill="none" stroke="#ff0000"/>
<path d="M329.605,60.2729v 2.6055" fill="none" stroke="#ff0000"/>
<path d="M327.976,62.8784h 3.25821" fill="none" stroke="#ff0000"/>
<path d="M370.037,59.5066v -2.5179" fill="none" stroke="#ff0000"/>
<path d="M368.408,56.9887h 3.25821" fill="none" stroke="#ff0000"/>
<path d="M370.037,59.5066v 2.60214" fill="none" stroke="#ff0000"/>
<path d="M368.408,62.1087h 3.25821" fill="none" stroke="#ff0000"/>
<path d="M406.931,55.0606v -2.50072" fill="none" stroke="#ff0000"/>
<path d="M405.302,52.5598h 3.25821" fill="none" stroke="#ff0000"/>
<path d="M406.931,55.0606v 2.5838" fill="none" stroke="#ff0000"/>
<path d="M405.302,57.6444h 3.25821" fill="none" stroke="#ff0000"/>
<path d="M439.87,48.1725v -2.47751" fill="none" stroke="#ff0000"/>
<path d="M438.241,45.695h 3.25821" fill="none" stroke="#ff0000"/>
<path d="M439.87,48.1725v 2.55903" fill="none" stroke="#ff0000"/>
<path d="M438.241,50.7315h 3.25821" fill="none" stroke="#ff0000"/>
<path d="M443.825,57.2518v -2.50896" fill="none" stroke="#ff0000"/>
<path d="M442.196,54.7428h 3.25821" fill="none" stroke="#ff0000"/>
<path d="M443.825,57.2518v 2.59259" fill="none" stroke="#ff0000"/>
<path d="M442.196,59.8444h 3.25821" fill="none" stroke="#ff0000"/>
<path d="M447.364,69.2423v -2.56254" fill="none" stroke="#ff0000"/>
<path d="M445.735,66.6797h 3.25821" fill="none" stroke="#ff0000"/>
<path d="M447.364,69.2423v 2.64985" fill="none" stroke="#ff0000"/>
<path d="M445.735,71.8921h 3.25821" fill="none" stroke="#ff0000"/>
<path d="M451.468,87.6872v -2.68088" fill="none" stroke="#ff0000"/>
<path d="M449.839,85.0063h 3.25821" fill="none" stroke="#ff0000"/>
<path d="M451.468,87.6872v 2.77658" fill="none" stroke="#ff0000"/>
<path d="M449.839,90.4638h 3.25821" fill="none" stroke="#ff0000"/>
<path d="M460.98,134.289v -2.62785" fill="none" stroke="#ff0000"/>
<path d="M459.351,131.661h 3.25821" fill="none" stroke="#ff0000"/>
<path d="M460.98,134.289v 2.71975" fill="none" stroke="#ff0000"/>
<path d="M459.351,137.009h 3.25821" fill="none" stroke="#ff0000"/>
<path d="M470.641,182.44v -2.59192" fill="none" stroke="#ff0000"/>
<path d="M469.012,179.848h 3.25821" fill="none" stroke="#ff0000"/>
<path d="M470.641,182.44v 2.68127" fill="none" stroke="#ff0000"/>
<path d="M469.012,185.122h 3.25821" fill="none" stroke="#ff0000"/>
<path d="M484.258,248.347v -2.56254" fill="none" stroke="#ff0000"/>
<path d="M482.629,245.784h 3.25821" fill="none" stroke="#ff0000"/>
<path d="M484.258,248.347v 2.64985" fill="none" stroke="#ff0000"/>
<path d="M482.629,250.997h 3.25821" fill="none" stroke="#ff0000"/>
<path d="M507.535,333.801v -3.82754" fill="none" stroke="#ff0000"/>
<path d="M505.906,329.974h 3.25821" fill="none" stroke="#ff0000"/>
<path d="M507.535,333.801v 4.02568" fill="none" stroke="#ff0000"/>
<path d="M505.906,337.827h 3.25821" fill="none" stroke="#ff0000"/>
<path d="M63.0565,60.3591h 220.502" fill="none" stroke="#ff0000"/>
<path d="M283.559,60.3591h 220.502" fill="none" stroke="#ff0000"/>
<path d="M504.061,60.3591h 4.50005" fill="none" stroke="#ff0000"/>
<path d="M441.061,38.4469l 4.50005, 21.1953l 4.50005, 21.9518l 4.50005, 21.9518l 4.50005, 21.9518l 4.50005, 21.9518l 4.50005, 21.9518l 4.50005, 21.9518l 4.50005, 21.9518l 4.50005, 21.9518l 4.50005, 21.9518l 4.50005, 21.9518l 4.50005, 21.9518l
 4.50005, 21.9518l 4.50005, 21.9518l 4.50005, 1.00609" fill="none" stroke="#0000ff"/>
<rect x="454.043" y="38.4469" width="56.6929" height="38.4469" fill="white"/>
<path d="M454.043,76.8938h 56.6929" fill="none" stroke="black"/>
<path d="M510.736,76.8938v -38.4469" fill="none" stroke="black"/>
<path d="M510.736,38.4469h -56.6929" fill="none" stroke="black"/>
<path d="M454.043,38.4469v 38.4469" fill="none" stroke="black"/>
<text x="468.054" y="47.2441" fill="black" font-size="8.72026" font-family="Helvetica">
Data
</text>
<path d="M456.169,44.8547h 9.92126" fill="none" stroke="#ff0000"/>
<g stroke="#0000ff" stroke-width="1" fill="none">
<line x1="460.13" y1="44.8547" x2="461.13" y2="44.8547"/>
</g>
<text x="468.054" y="60.2769" fill="black" font-size="8.72026" font-family="Helvetica">
Discesa
</text>
<path d="M456.169,57.6704h 9.92126" fill="none" stroke="#0000ff"/>
<text x="468.054" y="73.3098" fill="black" font-size="8.72026" font-family="Helvetica">
Plateau
</text>
<path d="M456.169,70.486h 9.92126" fill="none" stroke="#ff0000"/>
<text x="198.436" y="17.9202" fill="black" font-size="18.7938" font-family="Helvetica">
Frequency response
</text></svg>
